<svg width="8114" height="749" viewBox="0 0 8114 749" fill="none" xmlns="http://www.w3.org/2000/svg">
<mask id="path-1-outside-1_51_2" maskUnits="userSpaceOnUse" x="-7" y="-7" width="8128" height="763" fill="black">
<rect fill="white" x="-7" y="-7" width="8128" height="763"/>
<path d="M0.210227 738V10.7273H291.403C344.907 10.7273 389.533 18.6581 425.281 34.5199C461.029 50.3816 487.9 72.3987 505.892 100.571C523.884 128.507 532.881 160.704 532.881 197.162C532.881 225.571 527.199 250.547 515.835 272.091C504.472 293.398 488.847 310.917 468.96 324.648C449.311 338.142 426.82 347.73 401.489 353.412V360.514C429.188 361.698 455.111 369.51 479.259 383.952C503.643 398.393 523.411 418.634 538.562 444.676C553.714 470.481 561.29 501.258 561.29 537.006C561.29 575.595 551.702 610.041 532.526 640.344C513.586 670.41 485.532 694.203 448.364 711.722C411.195 729.241 365.385 738 310.935 738H0.210227ZM153.974 612.29H279.33C322.18 612.29 353.43 604.122 373.08 587.787C392.729 571.215 402.554 549.198 402.554 521.736C402.554 501.613 397.701 483.857 387.994 468.469C378.288 453.08 364.438 441.007 346.446 432.247C328.69 423.488 307.502 419.108 282.881 419.108H153.974V612.29ZM153.974 315.06H267.966C289.036 315.06 307.739 311.39 324.074 304.051C340.646 296.475 353.667 285.822 363.136 272.091C372.843 258.36 377.696 241.906 377.696 222.73C377.696 196.452 368.345 175.263 349.642 159.165C331.176 143.066 304.898 135.017 270.807 135.017H153.974V315.06ZM786.698 738H621.925L872.991 10.7273H1071.14L1321.85 738H1157.08L974.908 176.92H969.227L786.698 738ZM776.4 452.134H1165.6V572.162H776.4V452.134ZM1292.82 137.503V10.7273H1890.12V137.503H1667.47V738H1515.48V137.503H1292.82ZM1960.79 137.503V10.7273H2558.09V137.503H2335.44V738H2183.45V137.503H1960.79ZM2656.46 738V10.7273H2810.22V611.224H3122.01V738H2656.46ZM3223.84 738V10.7273H3713.9V137.503H3377.61V310.798H3688.69V437.574H3377.61V611.224H3715.32V738H3223.84ZM4318.39 245.812C4313.42 228.53 4306.44 213.26 4297.44 200.003C4288.44 186.509 4277.44 175.145 4264.41 165.912C4251.63 156.442 4236.95 149.222 4220.38 144.25C4204.05 139.278 4185.93 136.793 4166.05 136.793C4128.88 136.793 4096.21 146.026 4068.04 164.491C4040.1 182.957 4018.32 209.828 4002.7 245.102C3987.07 280.14 3979.26 322.991 3979.26 373.653C3979.26 424.316 3986.95 467.403 4002.34 502.915C4017.73 538.426 4039.51 565.533 4067.68 584.236C4095.85 602.702 4129.12 611.935 4167.47 611.935C4202.27 611.935 4231.98 605.779 4256.6 593.469C4281.46 580.921 4300.4 563.284 4313.42 540.557C4326.68 517.83 4333.31 490.959 4333.31 459.946L4364.56 464.562H4177.06V348.795H4481.39V440.415C4481.39 504.335 4467.89 559.259 4440.91 605.188C4413.92 650.879 4376.75 686.153 4329.4 711.011C4282.05 735.633 4227.84 747.943 4166.76 747.943C4098.58 747.943 4038.68 732.91 3987.07 702.844C3935.46 672.541 3895.21 629.572 3866.33 573.938C3837.69 518.066 3823.36 451.778 3823.36 375.074C3823.36 316.125 3831.89 263.568 3848.93 217.403C3866.21 171.002 3890.36 131.703 3921.38 99.5057C3952.39 67.3087 3988.49 42.8058 4029.68 25.9971C4070.88 9.18842 4115.5 0.784064 4163.56 0.784064C4204.76 0.784064 4243.11 6.821 4278.62 18.8949C4314.13 30.732 4345.62 47.5407 4373.08 69.321C4400.78 91.1013 4423.39 117.025 4440.91 147.091C4458.43 176.92 4469.67 209.828 4474.64 245.812H4318.39ZM4596.89 738V10.7273H4883.82C4938.75 10.7273 4985.62 20.5521 5024.45 40.2017C5063.51 59.6146 5093.22 87.1951 5113.58 122.943C5134.18 158.455 5144.48 200.24 5144.48 248.298C5144.48 296.594 5134.06 338.142 5113.23 372.943C5092.39 407.508 5062.21 434.023 5022.67 452.489C4983.37 470.955 4935.79 480.188 4879.92 480.188H4687.8V356.608H4855.06C4884.41 356.608 4908.8 352.583 4928.21 344.534C4947.62 336.485 4962.07 324.411 4971.53 308.312C4981.24 292.214 4986.09 272.209 4986.09 248.298C4986.09 224.151 4981.24 203.791 4971.53 187.219C4962.07 170.647 4947.51 158.099 4927.86 149.577C4908.44 140.817 4883.94 136.438 4854.35 136.438H4750.65V738H4596.89ZM4989.65 407.034L5170.4 738H5000.65L4823.81 407.034H4989.65ZM5921.46 374.364C5921.46 453.672 5906.43 521.144 5876.36 576.778C5846.53 632.413 5805.82 674.908 5754.21 704.264C5702.83 733.384 5645.07 747.943 5580.91 747.943C5516.28 747.943 5458.28 733.265 5406.9 703.909C5355.53 674.553 5314.93 632.058 5285.1 576.423C5255.27 520.789 5240.36 453.436 5240.36 374.364C5240.36 295.055 5255.27 227.583 5285.1 171.949C5314.93 116.314 5355.53 73.9375 5406.9 44.8182C5458.28 15.4621 5516.28 0.784064 5580.91 0.784064C5645.07 0.784064 5702.83 15.4621 5754.21 44.8182C5805.82 73.9375 5846.53 116.314 5876.36 171.949C5906.43 227.583 5921.46 295.055 5921.46 374.364ZM5765.57 374.364C5765.57 322.991 5757.87 279.667 5742.49 244.392C5727.33 209.117 5705.91 182.366 5678.21 164.136C5650.51 145.907 5618.08 136.793 5580.91 136.793C5543.74 136.793 5511.31 145.907 5483.61 164.136C5455.91 182.366 5434.37 209.117 5418.98 244.392C5403.83 279.667 5396.25 322.991 5396.25 374.364C5396.25 425.737 5403.83 469.061 5418.98 504.335C5434.37 539.61 5455.91 566.362 5483.61 584.591C5511.31 602.82 5543.74 611.935 5580.91 611.935C5618.08 611.935 5650.51 602.82 5678.21 584.591C5705.91 566.362 5727.33 539.61 5742.49 504.335C5757.87 469.061 5765.57 425.737 5765.57 374.364ZM6484.59 10.7273H6638.35V483.028C6638.35 536.059 6625.68 582.46 6600.35 622.233C6575.26 662.006 6540.1 693.019 6494.88 715.273C6449.67 737.29 6396.99 748.298 6336.86 748.298C6276.49 748.298 6223.7 737.29 6178.48 715.273C6133.26 693.019 6098.1 662.006 6073.01 622.233C6047.91 582.46 6035.37 536.059 6035.37 483.028V10.7273H6189.13V469.889C6189.13 497.588 6195.17 522.209 6207.24 543.753C6219.55 565.296 6236.83 582.223 6259.09 594.534C6281.34 606.845 6307.27 613 6336.86 613C6366.69 613 6392.61 606.845 6414.63 594.534C6436.88 582.223 6454.05 565.296 6466.12 543.753C6478.43 522.209 6484.59 497.588 6484.59 469.889V10.7273ZM7373.17 10.7273V738H7240.36L6923.95 280.259H6918.62V738H6764.86V10.7273H6899.8L7213.72 468.114H7220.11V10.7273H7373.17ZM7758.02 738H7500.21V10.7273H7760.15C7833.31 10.7273 7896.28 25.2869 7949.07 54.4062C8001.87 83.2888 8042.47 124.837 8070.88 179.051C8099.52 233.265 8113.85 298.133 8113.85 373.653C8113.85 449.411 8099.52 514.515 8070.88 568.966C8042.47 623.417 8001.63 665.202 7948.36 694.321C7895.33 723.44 7831.89 738 7758.02 738ZM7653.97 606.253H7751.63C7797.09 606.253 7835.32 598.204 7866.33 582.105C7897.58 565.77 7921.02 540.557 7936.64 506.466C7952.51 472.138 7960.44 427.867 7960.44 373.653C7960.44 319.913 7952.51 275.997 7936.64 241.906C7921.02 207.815 7897.7 182.721 7866.69 166.622C7835.67 150.524 7797.44 142.474 7751.99 142.474H7653.97V606.253Z"/>
</mask>
<path d="M0.210227 738H-6.78977V745H0.210227V738ZM0.210227 10.7273V3.72725H-6.78977V10.7273H0.210227ZM425.281 34.5199L422.442 40.9183L422.442 40.9183L425.281 34.5199ZM505.892 100.571L499.993 104.339L500 104.35L500.007 104.361L505.892 100.571ZM515.835 272.091L522.012 275.385L522.019 275.371L522.027 275.357L515.835 272.091ZM468.96 324.648L472.923 330.418L472.93 330.413L472.938 330.408L468.96 324.648ZM401.489 353.412L399.957 346.582L394.489 347.808V353.412H401.489ZM401.489 360.514H394.489V367.221L401.19 367.508L401.489 360.514ZM479.259 383.952L475.666 389.959L475.679 389.967L475.692 389.975L479.259 383.952ZM538.562 444.676L532.512 448.196L532.519 448.208L532.526 448.22L538.562 444.676ZM532.526 640.344L526.61 636.601L526.607 636.607L526.603 636.613L532.526 640.344ZM448.364 711.722L445.379 705.39L445.379 705.39L448.364 711.722ZM153.974 612.29H146.974V619.29H153.974V612.29ZM373.08 587.787L377.554 593.17L377.574 593.154L377.592 593.138L373.08 587.787ZM387.994 468.469L382.074 472.203L382.074 472.203L387.994 468.469ZM346.446 432.247L343.349 438.525L343.365 438.533L343.382 438.541L346.446 432.247ZM153.974 419.108V412.108H146.974V419.108H153.974ZM153.974 315.06H146.974V322.06H153.974V315.06ZM324.074 304.051L326.943 310.436L326.963 310.427L326.984 310.417L324.074 304.051ZM363.136 272.091L357.42 268.05L357.397 268.083L357.374 268.117L363.136 272.091ZM349.642 159.165L345.042 164.441L345.059 164.456L345.075 164.47L349.642 159.165ZM153.974 135.017V128.017H146.974V135.017H153.974ZM7.21023 738V10.7273H-6.78977V738H7.21023ZM0.210227 17.7273H291.403V3.72725H0.210227V17.7273ZM291.403 17.7273C344.268 17.7273 387.853 25.5707 422.442 40.9183L428.12 28.1214C391.214 11.7456 345.547 3.72725 291.403 3.72725V17.7273ZM422.442 40.9183C457.152 56.3195 482.859 77.5108 499.993 104.339L511.792 96.8033C492.941 67.2865 464.906 44.4438 428.12 28.1214L422.442 40.9183ZM500.007 104.361C517.201 131.058 525.881 161.912 525.881 197.162H539.881C539.881 159.495 530.568 125.955 511.777 96.7807L500.007 104.361ZM525.881 197.162C525.881 224.623 520.394 248.444 509.644 268.825L522.027 275.357C534.003 252.651 539.881 226.519 539.881 197.162H525.881ZM509.659 268.797C498.821 289.117 483.951 305.791 464.983 318.887L472.938 330.408C493.743 316.043 510.122 297.678 522.012 275.385L509.659 268.797ZM464.997 318.877C446.146 331.823 424.496 341.078 399.957 346.582L403.021 360.242C429.145 354.383 452.475 344.461 472.923 330.418L464.997 318.877ZM394.489 353.412V360.514H408.489V353.412H394.489ZM401.19 367.508C427.708 368.641 452.501 376.106 475.666 389.959L482.851 377.944C457.72 362.915 430.667 354.755 401.788 353.521L401.19 367.508ZM475.692 389.975C498.983 403.769 517.922 423.12 532.512 448.196L544.613 441.156C528.9 414.149 508.303 393.017 482.826 377.929L475.692 389.975ZM532.526 448.22C546.934 472.759 554.29 502.26 554.29 537.006H568.29C568.29 500.255 560.494 468.203 544.599 441.132L532.526 448.22ZM554.29 537.006C554.29 574.375 545.024 607.503 526.61 636.601L538.441 644.087C558.38 612.578 568.29 576.815 568.29 537.006H554.29ZM526.603 636.613C508.481 665.382 481.533 688.349 445.379 705.39L451.348 718.053C489.531 700.056 518.692 675.438 538.448 644.075L526.603 636.613ZM445.379 705.39C409.396 722.35 364.674 731 310.935 731V745C366.097 745 412.994 736.131 451.348 718.053L445.379 705.39ZM310.935 731H0.210227V745H310.935V731ZM153.974 619.29H279.33V605.29H153.974V619.29ZM279.33 619.29C322.798 619.29 356.041 611.055 377.554 593.17L368.605 582.404C350.819 597.19 321.562 605.29 279.33 605.29V619.29ZM377.592 593.138C398.938 575.136 409.554 551.1 409.554 521.736H395.554C395.554 547.296 386.52 567.294 368.567 582.436L377.592 593.138ZM409.554 521.736C409.554 500.436 404.4 481.357 393.915 464.734L382.074 472.203C391.001 486.357 395.554 502.79 395.554 521.736H409.554ZM393.915 464.734C383.445 448.135 368.553 435.224 349.51 425.953L343.382 438.541C360.324 446.789 373.131 458.026 382.074 472.203L393.915 464.734ZM349.543 425.97C330.618 416.633 308.32 412.108 282.881 412.108V426.108C306.684 426.108 326.762 430.342 343.349 438.525L349.543 425.97ZM282.881 412.108H153.974V426.108H282.881V412.108ZM146.974 419.108V612.29H160.974V419.108H146.974ZM153.974 322.06H267.966V308.06H153.974V322.06ZM267.966 322.06C289.852 322.06 309.56 318.246 326.943 310.436L321.205 297.666C305.917 304.534 288.22 308.06 267.966 308.06V322.06ZM326.984 310.417C344.596 302.366 358.646 290.931 368.899 276.065L357.374 268.117C348.687 280.713 336.696 290.584 321.164 297.685L326.984 310.417ZM368.852 276.132C379.508 261.058 384.696 243.143 384.696 222.73H370.696C370.696 240.67 366.177 255.662 357.42 268.05L368.852 276.132ZM384.696 222.73C384.696 194.564 374.567 171.383 354.209 153.859L345.075 164.47C362.123 179.144 370.696 198.34 370.696 222.73H384.696ZM354.242 153.888C334.079 136.31 305.929 128.017 270.807 128.017V142.017C303.867 142.017 328.273 149.822 345.042 164.441L354.242 153.888ZM270.807 128.017H153.974V142.017H270.807V128.017ZM146.974 135.017V315.06H160.974V135.017H146.974ZM786.698 738V745H791.782L793.355 740.166L786.698 738ZM621.925 738L615.309 735.716L612.104 745H621.925V738ZM872.991 10.7273V3.72725H868.002L866.374 8.44303L872.991 10.7273ZM1071.14 10.7273L1077.76 8.44591L1076.14 3.72725H1071.14V10.7273ZM1321.85 738V745H1331.67L1328.47 735.719L1321.85 738ZM1157.08 738L1150.42 740.162L1151.99 745H1157.08V738ZM974.908 176.92L981.566 174.759L979.995 169.92H974.908V176.92ZM969.227 176.92V169.92H964.143L962.57 174.755L969.227 176.92ZM776.4 452.134V445.134H769.4V452.134H776.4ZM1165.6 452.134H1172.6V445.134H1165.6V452.134ZM1165.6 572.162V579.162H1172.6V572.162H1165.6ZM776.4 572.162H769.4V579.162H776.4V572.162ZM786.698 731H621.925V745H786.698V731ZM628.542 740.284L879.608 13.0115L866.374 8.44303L615.309 735.716L628.542 740.284ZM872.991 17.7273H1071.14V3.72725H872.991V17.7273ZM1064.53 13.0086L1315.24 740.281L1328.47 735.719L1077.76 8.44591L1064.53 13.0086ZM1321.85 731H1157.08V745H1321.85V731ZM1163.74 735.838L981.566 174.759L968.251 179.082L1150.42 740.162L1163.74 735.838ZM974.908 169.92H969.227V183.92H974.908V169.92ZM962.57 174.755L780.042 735.834L793.355 740.166L975.883 179.086L962.57 174.755ZM776.4 459.134H1165.6V445.134H776.4V459.134ZM1158.6 452.134V572.162H1172.6V452.134H1158.6ZM1165.6 565.162H776.4V579.162H1165.6V565.162ZM783.4 572.162V452.134H769.4V572.162H783.4ZM1292.82 137.503H1285.82V144.503H1292.82V137.503ZM1292.82 10.7273V3.72725H1285.82V10.7273H1292.82ZM1890.12 10.7273H1897.12V3.72725H1890.12V10.7273ZM1890.12 137.503V144.503H1897.12V137.503H1890.12ZM1667.47 137.503V130.503H1660.47V137.503H1667.47ZM1667.47 738V745H1674.47V738H1667.47ZM1515.48 738H1508.48V745H1515.48V738ZM1515.48 137.503H1522.48V130.503H1515.48V137.503ZM1299.82 137.503V10.7273H1285.82V137.503H1299.82ZM1292.82 17.7273H1890.12V3.72725H1292.82V17.7273ZM1883.12 10.7273V137.503H1897.12V10.7273H1883.12ZM1890.12 130.503H1667.47V144.503H1890.12V130.503ZM1660.47 137.503V738H1674.47V137.503H1660.47ZM1667.47 731H1515.48V745H1667.47V731ZM1522.48 738V137.503H1508.48V738H1522.48ZM1515.48 130.503H1292.82V144.503H1515.48V130.503ZM1960.79 137.503H1953.79V144.503H1960.79V137.503ZM1960.79 10.7273V3.72725H1953.79V10.7273H1960.79ZM2558.09 10.7273H2565.09V3.72725H2558.09V10.7273ZM2558.09 137.503V144.503H2565.09V137.503H2558.09ZM2335.44 137.503V130.503H2328.44V137.503H2335.44ZM2335.44 738V745H2342.44V738H2335.44ZM2183.45 738H2176.45V745H2183.45V738ZM2183.45 137.503H2190.45V130.503H2183.45V137.503ZM1967.79 137.503V10.7273H1953.79V137.503H1967.79ZM1960.79 17.7273H2558.09V3.72725H1960.79V17.7273ZM2551.09 10.7273V137.503H2565.09V10.7273H2551.09ZM2558.09 130.503H2335.44V144.503H2558.09V130.503ZM2328.44 137.503V738H2342.44V137.503H2328.44ZM2335.44 731H2183.45V745H2335.44V731ZM2190.45 738V137.503H2176.45V738H2190.45ZM2183.45 130.503H1960.79V144.503H2183.45V130.503ZM2656.46 738H2649.46V745H2656.46V738ZM2656.46 10.7273V3.72725H2649.46V10.7273H2656.46ZM2810.22 10.7273H2817.22V3.72725H2810.22V10.7273ZM2810.22 611.224H2803.22V618.224H2810.22V611.224ZM3122.01 611.224H3129.01V604.224H3122.01V611.224ZM3122.01 738V745H3129.01V738H3122.01ZM2663.46 738V10.7273H2649.46V738H2663.46ZM2656.46 17.7273H2810.22V3.72725H2656.46V17.7273ZM2803.22 10.7273V611.224H2817.22V10.7273H2803.22ZM2810.22 618.224H3122.01V604.224H2810.22V618.224ZM3115.01 611.224V738H3129.01V611.224H3115.01ZM3122.01 731H2656.46V745H3122.01V731ZM3223.84 738H3216.84V745H3223.84V738ZM3223.84 10.7273V3.72725H3216.84V10.7273H3223.84ZM3713.9 10.7273H3720.9V3.72725H3713.9V10.7273ZM3713.9 137.503V144.503H3720.9V137.503H3713.9ZM3377.61 137.503V130.503H3370.61V137.503H3377.61ZM3377.61 310.798H3370.61V317.798H3377.61V310.798ZM3688.69 310.798H3695.69V303.798H3688.69V310.798ZM3688.69 437.574V444.574H3695.69V437.574H3688.69ZM3377.61 437.574V430.574H3370.61V437.574H3377.61ZM3377.61 611.224H3370.61V618.224H3377.61V611.224ZM3715.32 611.224H3722.32V604.224H3715.32V611.224ZM3715.32 738V745H3722.32V738H3715.32ZM3230.84 738V10.7273H3216.84V738H3230.84ZM3223.84 17.7273H3713.9V3.72725H3223.84V17.7273ZM3706.9 10.7273V137.503H3720.9V10.7273H3706.9ZM3713.9 130.503H3377.61V144.503H3713.9V130.503ZM3370.61 137.503V310.798H3384.61V137.503H3370.61ZM3377.61 317.798H3688.69V303.798H3377.61V317.798ZM3681.69 310.798V437.574H3695.69V310.798H3681.69ZM3688.69 430.574H3377.61V444.574H3688.69V430.574ZM3370.61 437.574V611.224H3384.61V437.574H3370.61ZM3377.61 618.224H3715.32V604.224H3377.61V618.224ZM3708.32 611.224V738H3722.32V611.224H3708.32ZM3715.32 731H3223.84V745H3715.32V731ZM4318.39 245.812L4311.66 247.748L4313.12 252.812H4318.39V245.812ZM4297.44 200.003L4291.62 203.886L4291.63 203.91L4291.65 203.933L4297.44 200.003ZM4264.41 165.912L4260.25 171.537L4260.31 171.58L4260.37 171.622L4264.41 165.912ZM4220.38 144.25L4218.34 150.947L4218.36 150.951L4218.37 150.955L4220.38 144.25ZM4068.04 164.491L4064.2 158.637L4064.19 158.644L4064.18 158.652L4068.04 164.491ZM4002.7 245.102L4009.09 247.953L4009.09 247.945L4009.1 247.937L4002.7 245.102ZM4067.68 584.236L4063.81 590.068L4063.83 590.079L4063.84 590.09L4067.68 584.236ZM4256.6 593.469L4259.73 599.73L4259.74 599.724L4259.76 599.718L4256.6 593.469ZM4313.42 540.557L4307.37 537.03L4307.36 537.053L4307.35 537.077L4313.42 540.557ZM4333.31 459.946L4334.33 453.021L4326.31 451.836V459.946H4333.31ZM4364.56 464.562V471.562L4365.58 457.638L4364.56 464.562ZM4177.06 464.562H4170.06V471.562H4177.06V464.562ZM4177.06 348.795V341.795H4170.06V348.795H4177.06ZM4481.39 348.795H4488.39V341.795H4481.39V348.795ZM4440.91 605.188L4446.93 608.748L4446.94 608.741L4446.94 608.734L4440.91 605.188ZM4329.4 711.011L4332.63 717.222L4332.64 717.216L4332.65 717.209L4329.4 711.011ZM3987.07 702.844L3983.53 708.88L3983.54 708.886L3983.55 708.892L3987.07 702.844ZM3866.33 573.938L3860.1 577.131L3860.11 577.147L3860.12 577.163L3866.33 573.938ZM3848.93 217.403L3842.37 214.96L3842.37 214.969L3842.37 214.979L3848.93 217.403ZM3921.38 99.5057L3926.42 104.362L3926.42 104.362L3921.38 99.5057ZM4029.68 25.9971L4027.04 19.5159L4027.04 19.5159L4029.68 25.9971ZM4278.62 18.8949L4276.37 25.5223L4276.39 25.529L4276.41 25.5357L4278.62 18.8949ZM4373.08 69.321L4368.73 74.8055L4368.74 74.8146L4368.75 74.8236L4373.08 69.321ZM4440.91 147.091L4434.86 150.615L4434.86 150.625L4434.87 150.636L4440.91 147.091ZM4474.64 245.812V252.812H4482.68L4481.58 244.854L4474.64 245.812ZM4325.12 243.877C4319.97 225.971 4312.69 210.011 4303.23 196.072L4291.65 203.933C4300.18 216.51 4306.87 231.09 4311.66 247.748L4325.12 243.877ZM4303.26 196.12C4293.8 181.925 4282.19 169.938 4268.46 160.202L4260.37 171.622C4272.68 180.352 4283.09 191.092 4291.62 203.886L4303.26 196.12ZM4268.58 160.287C4255.09 150.295 4239.67 142.729 4222.39 137.545L4218.37 150.955C4234.23 155.714 4248.17 162.589 4260.25 171.537L4268.58 160.287ZM4222.42 137.553C4205.32 132.351 4186.51 129.793 4166.05 129.793V143.793C4185.35 143.793 4202.77 146.206 4218.34 150.947L4222.42 137.553ZM4166.05 129.793C4127.66 129.793 4093.63 139.347 4064.2 158.637L4071.87 170.346C4098.79 152.704 4130.1 143.793 4166.05 143.793V129.793ZM4064.18 158.652C4034.96 177.963 4012.38 205.959 3996.3 242.267L4009.1 247.937C4024.26 213.696 4045.24 187.952 4071.9 170.331L4064.18 158.652ZM3996.3 242.251C3980.17 278.425 3972.26 322.308 3972.26 373.653H3986.26C3986.26 323.673 3993.97 281.855 4009.09 247.953L3996.3 242.251ZM3972.26 373.653C3972.26 424.992 3980.05 469.082 3995.92 505.698L4008.76 500.132C3993.85 465.725 3986.26 423.641 3986.26 373.653H3972.26ZM3995.92 505.698C4011.76 542.267 4034.35 570.513 4063.81 590.068L4071.55 578.404C4044.66 560.553 4023.69 534.586 4008.76 500.132L3995.92 505.698ZM4063.84 590.09C4093.31 609.403 4127.95 618.935 4167.47 618.935V604.935C4130.29 604.935 4098.4 596 4071.52 578.381L4063.84 590.09ZM4167.47 618.935C4203.08 618.935 4233.92 612.638 4259.73 599.73L4253.47 587.208C4230.04 598.921 4201.46 604.935 4167.47 604.935V618.935ZM4259.76 599.718C4285.76 586.594 4305.75 568.029 4319.49 544.037L4307.35 537.077C4295.05 558.539 4277.16 575.249 4253.45 587.22L4259.76 599.718ZM4319.47 544.084C4333.45 520.109 4340.31 491.976 4340.31 459.946H4326.31C4326.31 489.943 4319.9 515.551 4307.37 537.03L4319.47 544.084ZM4332.28 466.871L4363.53 471.487L4365.58 457.638L4334.33 453.021L4332.28 466.871ZM4364.56 457.562H4177.06V471.562H4364.56V457.562ZM4184.06 464.562V348.795H4170.06V464.562H4184.06ZM4177.06 355.795H4481.39V341.795H4177.06V355.795ZM4474.39 348.795V440.415H4488.39V348.795H4474.39ZM4474.39 440.415C4474.39 503.338 4461.11 556.985 4434.87 601.641L4446.94 608.734C4474.68 561.534 4488.39 505.332 4488.39 440.415H4474.39ZM4434.88 601.627C4408.56 646.19 4372.35 680.555 4326.15 704.814L4332.65 717.209C4381.14 691.752 4419.28 655.568 4446.93 608.748L4434.88 601.627ZM4326.17 704.801C4279.96 728.833 4226.88 740.943 4166.76 740.943V754.943C4228.8 754.943 4284.15 742.432 4332.63 717.222L4326.17 704.801ZM4166.76 740.943C4099.64 740.943 4040.99 726.154 3990.59 696.795L3983.55 708.892C4036.37 739.666 4097.52 754.943 4166.76 754.943V740.943ZM3990.62 696.807C3940.2 667.204 3900.85 625.235 3872.55 570.712L3860.12 577.163C3889.58 633.909 3930.73 677.877 3983.53 708.88L3990.62 696.807ZM3872.56 570.744C3844.52 516.056 3830.36 450.91 3830.36 375.074H3816.36C3816.36 452.646 3830.85 520.076 3860.1 577.131L3872.56 570.744ZM3830.36 375.074C3830.36 316.793 3838.79 265.08 3855.5 219.828L3842.37 214.979C3824.98 262.056 3816.36 315.457 3816.36 375.074H3830.36ZM3855.49 219.847C3872.47 174.248 3896.14 135.796 3926.42 104.362L3916.33 94.6495C3884.59 127.609 3859.95 167.756 3842.37 214.96L3855.49 219.847ZM3926.42 104.362C3956.76 72.8642 3992.04 48.9165 4032.33 32.4783L4027.04 19.5159C3984.94 36.6951 3948.02 61.7532 3916.33 94.6495L3926.42 104.362ZM4032.33 32.4783C4072.62 16.0389 4116.34 7.78406 4163.56 7.78406V-6.21594C4114.67 -6.21594 4069.14 2.33796 4027.04 19.5159L4032.33 32.4783ZM4163.56 7.78406C4204.06 7.78406 4241.65 13.7182 4276.37 25.5223L4280.87 12.2675C4244.57 -0.0761533 4205.45 -6.21594 4163.56 -6.21594V7.78406ZM4276.41 25.5357C4311.2 37.1324 4341.95 53.5657 4368.73 74.8055L4377.43 63.8365C4349.29 41.5157 4317.07 24.3316 4280.83 12.2541L4276.41 25.5357ZM4368.75 74.8236C4395.77 96.0658 4417.79 121.321 4434.86 150.615L4446.95 143.567C4428.99 112.729 4405.79 86.1368 4377.41 63.8184L4368.75 74.8236ZM4434.87 150.636C4451.9 179.631 4462.86 211.652 4467.71 246.771L4481.58 244.854C4476.48 208.003 4464.95 174.21 4446.94 143.546L4434.87 150.636ZM4474.64 238.812H4318.39V252.812H4474.64V238.812ZM4596.89 738H4589.89V745H4596.89V738ZM4596.89 10.7273V3.72725H4589.89V10.7273H4596.89ZM5024.45 40.2017L5021.29 46.4474L5021.31 46.4589L5021.33 46.4703L5024.45 40.2017ZM5113.58 122.943L5107.5 126.407L5107.51 126.431L5107.53 126.455L5113.58 122.943ZM5113.23 372.943L5119.22 376.557L5119.23 376.548L5119.23 376.539L5113.23 372.943ZM5022.67 452.489L5019.71 446.146L5019.7 446.15L5019.69 446.153L5022.67 452.489ZM4687.8 480.188H4680.8V487.188H4687.8V480.188ZM4687.8 356.608V349.608H4680.8V356.608H4687.8ZM4928.21 344.534L4930.89 351L4930.89 351L4928.21 344.534ZM4971.53 308.312L4965.54 304.698L4965.52 304.731L4965.5 304.763L4971.53 308.312ZM4971.53 187.219L4965.46 190.692L4965.48 190.724L4965.49 190.757L4971.53 187.219ZM4927.86 149.577L4924.98 155.957L4925.02 155.978L4925.07 155.999L4927.86 149.577ZM4750.65 136.438V129.438H4743.65V136.438H4750.65ZM4750.65 738V745H4757.65V738H4750.65ZM4989.65 407.034L4995.79 403.679L4993.8 400.034H4989.65V407.034ZM5170.4 738V745H5182.2L5176.54 734.645L5170.4 738ZM5000.65 738L4994.48 741.299L4996.46 745H5000.65V738ZM4823.81 407.034V400.034H4812.13L4817.63 410.333L4823.81 407.034ZM4603.89 738V10.7273H4589.89V738H4603.89ZM4596.89 17.7273H4883.82V3.72725H4596.89V17.7273ZM4883.82 17.7273C4937.93 17.7273 4983.66 27.4065 5021.29 46.4474L5027.61 33.956C4987.58 13.6976 4939.56 3.72725 4883.82 3.72725V17.7273ZM5021.33 46.4703C5059.23 65.3033 5087.87 91.9428 5107.5 126.407L5119.66 119.479C5098.57 82.4474 5067.79 53.9258 5027.56 33.9331L5021.33 46.4703ZM5107.53 126.455C5127.4 160.73 5137.48 201.261 5137.48 248.298H5151.48C5151.48 199.219 5140.95 156.179 5119.64 119.431L5107.53 126.455ZM5137.48 248.298C5137.48 295.571 5127.29 335.824 5107.22 369.348L5119.23 376.539C5140.83 340.46 5151.48 297.617 5151.48 248.298H5137.48ZM5107.23 369.33C5087.17 402.606 5058.09 428.219 5019.71 446.146L5025.63 458.831C5066.32 439.827 5097.61 412.409 5119.22 376.557L5107.23 369.33ZM5019.69 446.153C4981.55 464.075 4935.04 473.188 4879.92 473.188V487.188C4936.53 487.188 4985.19 477.834 5025.65 458.824L5019.69 446.153ZM4879.92 473.188H4687.8V487.188H4879.92V473.188ZM4694.8 480.188V356.608H4680.8V480.188H4694.8ZM4687.8 363.608H4855.06V349.608H4687.8V363.608ZM4855.06 363.608C4884.99 363.608 4910.36 359.512 4930.89 351L4925.53 338.068C4907.23 345.655 4883.83 349.608 4855.06 349.608V363.608ZM4930.89 351C4951.53 342.445 4967.23 329.433 4977.57 311.862L4965.5 304.763C4956.9 319.389 4943.72 330.525 4925.53 338.068L4930.89 351ZM4977.53 311.927C4988.05 294.478 4993.09 273.141 4993.09 248.298H4979.09C4979.09 271.277 4974.43 289.95 4965.54 304.698L4977.53 311.927ZM4993.09 248.298C4993.09 223.223 4988.05 201.569 4977.57 183.681L4965.49 190.757C4974.43 206.012 4979.09 225.078 4979.09 248.298H4993.09ZM4977.61 183.746C4967.3 165.702 4951.5 152.202 4930.64 143.155L4925.07 155.999C4943.51 163.997 4956.83 175.591 4965.46 190.692L4977.61 183.746ZM4930.73 143.196C4910.14 133.902 4884.57 129.438 4854.35 129.438V143.438C4883.31 143.438 4906.75 147.732 4924.98 155.957L4930.73 143.196ZM4854.35 129.438H4750.65V143.438H4854.35V129.438ZM4743.65 136.438V738H4757.65V136.438H4743.65ZM4750.65 731H4596.89V745H4750.65V731ZM4983.5 410.389L5164.25 741.355L5176.54 734.645L4995.79 403.679L4983.5 410.389ZM5170.4 731H5000.65V745H5170.4V731ZM5006.83 734.701L4829.98 403.735L4817.63 410.333L4994.48 741.299L5006.83 734.701ZM4823.81 414.034H4989.65V400.034H4823.81V414.034ZM5876.36 576.778L5870.21 573.45L5870.2 573.46L5870.2 573.471L5876.36 576.778ZM5754.21 704.264L5757.66 710.354L5757.67 710.349L5754.21 704.264ZM5406.9 703.909L5410.38 697.831L5406.9 703.909ZM5285.1 576.423L5278.93 579.731L5278.93 579.731L5285.1 576.423ZM5285.1 171.949L5291.27 175.257L5291.27 175.257L5285.1 171.949ZM5406.9 44.8182L5410.36 50.9079L5410.37 50.9019L5410.38 50.8959L5406.9 44.8182ZM5754.21 44.8182L5750.73 50.8959L5750.75 50.9054L5750.77 50.9147L5754.21 44.8182ZM5876.36 171.949L5870.2 175.257L5870.2 175.267L5870.21 175.277L5876.36 171.949ZM5742.49 244.392L5736.05 247.155L5736.06 247.173L5736.07 247.191L5742.49 244.392ZM5678.21 164.136L5674.36 169.984L5674.36 169.984L5678.21 164.136ZM5483.61 164.136L5487.46 169.984L5487.46 169.984L5483.61 164.136ZM5418.98 244.392L5412.56 241.593L5412.55 241.611L5412.55 241.629L5418.98 244.392ZM5418.98 504.335L5412.55 507.098L5412.55 507.116L5412.56 507.134L5418.98 504.335ZM5483.61 584.591L5487.46 578.744L5487.46 578.744L5483.61 584.591ZM5678.21 584.591L5674.36 578.744L5674.36 578.744L5678.21 584.591ZM5742.49 504.335L5736.07 501.536L5736.06 501.554L5736.05 501.573L5742.49 504.335ZM5914.46 374.364C5914.46 452.8 5899.6 519.066 5870.21 573.45L5882.52 580.106C5913.26 523.222 5928.46 454.545 5928.46 374.364H5914.46ZM5870.2 573.471C5840.95 628.02 5801.13 669.517 5750.74 698.18L5757.67 710.349C5810.5 680.299 5852.12 636.806 5882.53 580.086L5870.2 573.471ZM5750.75 698.174C5700.52 726.646 5643.96 740.943 5580.91 740.943V754.943C5646.17 754.943 5705.14 740.121 5757.66 710.354L5750.75 698.174ZM5580.91 740.943C5517.38 740.943 5460.6 726.528 5410.38 697.831L5403.43 709.987C5455.96 740.002 5515.18 754.943 5580.91 754.943V740.943ZM5410.38 697.831C5360.22 669.171 5320.52 627.673 5291.27 573.116L5278.93 579.731C5309.34 636.443 5350.84 679.935 5403.43 709.987L5410.38 697.831ZM5291.27 573.116C5262.11 518.724 5247.36 452.567 5247.36 374.364H5233.36C5233.36 454.304 5248.44 522.854 5278.93 579.731L5291.27 573.116ZM5247.36 374.364C5247.36 295.919 5262.11 229.646 5291.27 175.257L5278.93 168.641C5248.43 225.521 5233.36 294.191 5233.36 374.364H5247.36ZM5291.27 175.257C5320.52 120.704 5360.21 79.3297 5410.36 50.9079L5403.45 38.7284C5350.85 68.5452 5309.34 111.925 5278.93 168.641L5291.27 175.257ZM5410.38 50.8959C5460.6 22.1991 5517.38 7.78406 5580.91 7.78406V-6.21594C5515.18 -6.21594 5455.96 8.72512 5403.43 38.7405L5410.38 50.8959ZM5580.91 7.78406C5643.95 7.78406 5700.51 22.1946 5750.73 50.8959L5757.68 38.7405C5705.16 8.72959 5646.18 -6.21594 5580.91 -6.21594V7.78406ZM5750.77 50.9147C5801.14 79.3388 5840.95 120.712 5870.2 175.257L5882.53 168.641C5852.12 111.917 5810.49 68.5362 5757.65 38.7216L5750.77 50.9147ZM5870.21 175.277C5899.6 229.661 5914.46 295.927 5914.46 374.364H5928.46C5928.46 294.183 5913.26 225.505 5882.52 168.621L5870.21 175.277ZM5772.57 374.364C5772.57 322.333 5764.78 277.993 5748.9 241.593L5736.07 247.191C5750.97 281.34 5758.57 323.648 5758.57 374.364H5772.57ZM5748.92 241.629C5733.31 205.299 5711.07 177.385 5682.06 158.289L5674.36 169.984C5700.75 187.346 5721.36 212.935 5736.05 247.155L5748.92 241.629ZM5682.06 158.289C5653.08 139.219 5619.28 129.793 5580.91 129.793V143.793C5616.88 143.793 5647.94 152.595 5674.36 169.984L5682.06 158.289ZM5580.91 129.793C5542.54 129.793 5508.74 139.219 5479.76 158.289L5487.46 169.984C5513.88 152.595 5544.94 143.793 5580.91 143.793V129.793ZM5479.76 158.289C5450.76 177.378 5428.4 205.279 5412.56 241.593L5425.39 247.191C5440.33 212.956 5461.06 187.353 5487.46 169.984L5479.76 158.289ZM5412.55 241.629C5396.92 278.018 5389.25 322.344 5389.25 374.364H5403.25C5403.25 323.637 5410.74 281.315 5425.41 247.155L5412.55 241.629ZM5389.25 374.364C5389.25 426.383 5396.92 470.709 5412.55 507.098L5425.41 501.573C5410.74 467.412 5403.25 425.091 5403.25 374.364H5389.25ZM5412.56 507.134C5428.4 543.448 5450.76 571.349 5479.76 590.438L5487.46 578.744C5461.06 561.374 5440.33 535.772 5425.39 501.536L5412.56 507.134ZM5479.76 590.438C5508.74 609.508 5542.54 618.935 5580.91 618.935V604.935C5544.94 604.935 5513.88 596.132 5487.46 578.744L5479.76 590.438ZM5580.91 618.935C5619.28 618.935 5653.08 609.508 5682.06 590.438L5674.36 578.744C5647.94 596.132 5616.88 604.935 5580.91 604.935V618.935ZM5682.06 590.438C5711.07 571.343 5733.31 543.428 5748.92 507.098L5736.05 501.573C5721.36 535.792 5700.75 561.381 5674.36 578.744L5682.06 590.438ZM5748.9 507.134C5764.78 470.734 5772.57 426.394 5772.57 374.364H5758.57C5758.57 425.079 5750.97 467.387 5736.07 501.536L5748.9 507.134ZM6484.59 10.7273V3.72725H6477.59V10.7273H6484.59ZM6638.35 10.7273H6645.35V3.72725H6638.35V10.7273ZM6600.35 622.233L6594.45 618.473L6594.44 618.485L6594.43 618.498L6600.35 622.233ZM6494.88 715.273L6497.95 721.566L6497.96 721.56L6497.97 721.553L6494.88 715.273ZM6178.48 715.273L6175.39 721.553L6175.4 721.56L6175.41 721.566L6178.48 715.273ZM6073.01 622.233L6067.09 625.968L6067.09 625.968L6073.01 622.233ZM6035.37 10.7273V3.72725H6028.37V10.7273H6035.37ZM6189.13 10.7273H6196.13V3.72725H6189.13V10.7273ZM6207.24 543.753L6201.14 547.175L6201.15 547.201L6201.16 547.226L6207.24 543.753ZM6259.09 594.534L6255.7 600.659L6255.7 600.659L6259.09 594.534ZM6414.63 594.534L6411.24 588.409L6411.23 588.417L6411.21 588.424L6414.63 594.534ZM6466.12 543.753L6460.04 540.28L6460.03 540.305L6460.01 540.331L6466.12 543.753ZM6484.59 17.7273H6638.35V3.72725H6484.59V17.7273ZM6631.35 10.7273V483.028H6645.35V10.7273H6631.35ZM6631.35 483.028C6631.35 534.898 6618.98 579.959 6594.45 618.473L6606.26 625.993C6632.39 584.961 6645.35 537.22 6645.35 483.028H6631.35ZM6594.43 618.498C6570.08 657.098 6535.94 687.267 6491.79 708.992L6497.97 721.553C6544.27 698.771 6580.44 666.913 6606.27 625.968L6594.43 618.498ZM6491.82 708.979C6447.72 730.449 6396.13 741.298 6336.86 741.298V755.298C6397.85 755.298 6451.61 744.13 6497.95 721.566L6491.82 708.979ZM6336.86 741.298C6277.34 741.298 6225.63 730.447 6181.54 708.979L6175.41 721.566C6221.76 744.132 6275.64 755.298 6336.86 755.298V741.298ZM6181.57 708.992C6137.42 687.267 6103.28 657.098 6078.93 618.498L6067.09 625.968C6092.92 666.913 6129.09 698.771 6175.39 721.553L6181.57 708.992ZM6078.93 618.498C6054.63 579.981 6042.37 534.91 6042.37 483.028H6028.37C6028.37 537.207 6041.2 584.939 6067.09 625.968L6078.93 618.498ZM6042.37 483.028V10.7273H6028.37V483.028H6042.37ZM6035.37 17.7273H6189.13V3.72725H6035.37V17.7273ZM6182.13 10.7273V469.889H6196.13V10.7273H6182.13ZM6182.13 469.889C6182.13 498.638 6188.41 524.464 6201.14 547.175L6213.35 540.331C6201.93 519.955 6196.13 496.538 6196.13 469.889H6182.13ZM6201.16 547.226C6214.13 569.912 6232.35 587.744 6255.7 600.659L6262.48 588.409C6241.32 576.703 6224.98 560.681 6213.32 540.28L6201.16 547.226ZM6255.7 600.659C6279.15 613.631 6306.28 620 6336.86 620V606C6308.26 606 6283.53 600.058 6262.48 588.409L6255.7 600.659ZM6336.86 620C6367.66 620 6394.81 613.636 6418.04 600.644L6411.21 588.424C6390.41 600.053 6365.71 606 6336.86 606V620ZM6418.02 600.659C6441.37 587.738 6459.5 569.89 6472.23 547.175L6460.01 540.331C6448.6 560.703 6432.39 576.709 6411.24 588.409L6418.02 600.659ZM6472.2 547.226C6485.18 524.506 6491.59 498.661 6491.59 469.889H6477.59C6477.59 496.515 6471.68 519.913 6460.04 540.28L6472.2 547.226ZM6491.59 469.889V10.7273H6477.59V469.889H6491.59ZM7373.17 10.7273H7380.17V3.72725H7373.17V10.7273ZM7373.17 738V745H7380.17V738H7373.17ZM7240.36 738L7234.6 741.98L7236.68 745H7240.36V738ZM6923.95 280.259L6929.71 276.278L6927.62 273.259H6923.95V280.259ZM6918.62 280.259V273.259H6911.62V280.259H6918.62ZM6918.62 738V745H6925.62V738H6918.62ZM6764.86 738H6757.86V745H6764.86V738ZM6764.86 10.7273V3.72725H6757.86V10.7273H6764.86ZM6899.8 10.7273L6905.57 6.76611L6903.49 3.72725H6899.8V10.7273ZM7213.72 468.114L7207.95 472.075L7210.04 475.114H7213.72V468.114ZM7220.11 468.114V475.114H7227.11V468.114H7220.11ZM7220.11 10.7273V3.72725H7213.11V10.7273H7220.11ZM7366.17 10.7273V738H7380.17V10.7273H7366.17ZM7373.17 731H7240.36V745H7373.17V731ZM7246.11 734.02L6929.71 276.278L6918.19 284.239L7234.6 741.98L7246.11 734.02ZM6923.95 273.259H6918.62V287.259H6923.95V273.259ZM6911.62 280.259V738H6925.62V280.259H6911.62ZM6918.62 731H6764.86V745H6918.62V731ZM6771.86 738V10.7273H6757.86V738H6771.86ZM6764.86 17.7273H6899.8V3.72725H6764.86V17.7273ZM6894.03 14.6884L7207.95 472.075L7219.49 464.152L6905.57 6.76611L6894.03 14.6884ZM7213.72 475.114H7220.11V461.114H7213.72V475.114ZM7227.11 468.114V10.7273H7213.11V468.114H7227.11ZM7220.11 17.7273H7373.17V3.72725H7220.11V17.7273ZM7500.21 738H7493.21V745H7500.21V738ZM7500.21 10.7273V3.72725H7493.21V10.7273H7500.21ZM7949.07 54.4062L7945.69 60.5357L7945.7 60.5415L7945.71 60.5473L7949.07 54.4062ZM8070.88 179.051L8064.68 182.3L8064.68 182.311L8064.69 182.321L8070.88 179.051ZM8070.88 568.966L8064.68 565.707L8064.68 565.717L8064.67 565.728L8070.88 568.966ZM7948.36 694.321L7945.01 688.179L7944.99 688.185L7948.36 694.321ZM7653.97 606.253H7646.97V613.253H7653.97V606.253ZM7866.33 582.105L7869.56 588.318L7869.57 588.313L7869.58 588.309L7866.33 582.105ZM7936.64 506.466L7930.29 503.53L7930.29 503.54L7930.28 503.549L7936.64 506.466ZM7936.64 241.906L7930.28 244.823L7930.29 244.841L7930.3 244.859L7936.64 241.906ZM7866.69 166.622L7869.91 160.409L7869.91 160.409L7866.69 166.622ZM7653.97 142.474V135.474H7646.97V142.474H7653.97ZM7758.02 731H7500.21V745H7758.02V731ZM7507.21 738V10.7273H7493.21V738H7507.21ZM7500.21 17.7273H7760.15V3.72725H7500.21V17.7273ZM7760.15 17.7273C7832.38 17.7273 7894.13 32.0973 7945.69 60.5357L7952.45 48.2768C7898.43 18.4765 7834.24 3.72725 7760.15 3.72725V17.7273ZM7945.71 60.5473C7997.27 88.7552 8036.9 129.287 8064.68 182.3L8077.08 175.802C8048.04 120.387 8006.46 77.8224 7952.43 48.2652L7945.71 60.5473ZM8064.69 182.321C8092.69 235.32 8106.85 299.012 8106.85 373.653H8120.85C8120.85 297.253 8106.35 231.21 8077.07 175.781L8064.69 182.321ZM8106.85 373.653C8106.85 448.534 8092.69 512.468 8064.68 565.707L8077.07 572.225C8106.36 516.563 8120.85 450.288 8120.85 373.653H8106.85ZM8064.67 565.728C8036.9 618.965 7997.04 659.733 7945.01 688.179L7951.72 700.463C8006.22 670.671 8048.04 627.868 8077.08 572.204L8064.67 565.728ZM7944.99 688.185C7893.2 716.625 7830.97 731 7758.02 731V745C7832.81 745 7897.47 730.256 7951.73 700.457L7944.99 688.185ZM7653.97 613.253H7751.63V599.253H7653.97V613.253ZM7751.63 613.253C7797.88 613.253 7837.29 605.066 7869.56 588.318L7863.11 575.892C7833.34 591.342 7796.29 599.253 7751.63 599.253V613.253ZM7869.58 588.309C7902.29 571.207 7926.78 544.789 7943.01 509.382L7930.28 503.549C7915.26 536.325 7892.87 560.333 7863.09 575.902L7869.58 588.309ZM7943 509.402C7959.43 473.845 7967.44 428.474 7967.44 373.653H7953.44C7953.44 427.261 7945.58 470.432 7930.29 503.53L7943 509.402ZM7967.44 373.653C7967.44 319.299 7959.43 274.278 7942.99 238.953L7930.3 244.859C7945.59 277.716 7953.44 320.527 7953.44 373.653H7967.44ZM7943.01 238.99C7926.78 203.592 7902.41 177.28 7869.91 160.409L7863.46 172.835C7892.99 188.161 7915.26 212.039 7930.28 244.823L7943.01 238.99ZM7869.91 160.409C7837.65 143.662 7798.24 135.474 7751.99 135.474V149.474C7796.64 149.474 7833.7 157.386 7863.46 172.835L7869.91 160.409ZM7751.99 135.474H7653.97V149.474H7751.99V135.474ZM7646.97 142.474V606.253H7660.97V142.474H7646.97Z" fill="white" mask="url(#path-1-outside-1_51_2)"/>
</svg>
