<svg width="165" height="29" viewBox="0 0 165 29" fill="none" xmlns="http://www.w3.org/2000/svg">
<path d="M7.96 12.44L10.48 19H6.72L4.32 12.44L6.7 6.16H10.46L7.96 12.44ZM0.8 19V6.16H4.3V19H0.8ZM17.7055 14.44V19H14.2055V6.16H20.1455C22.1055 6.16 23.0855 6.98667 23.0855 8.64V11.96C23.0855 13.2267 22.5121 14.0067 21.3655 14.3L23.7255 19H19.9655L17.9255 14.44H17.7055ZM19.0855 8.66H17.7055V12.06H19.0855C19.4188 12.06 19.5855 11.9133 19.5855 11.62V9.1C19.5855 8.80667 19.4188 8.66 19.0855 8.66ZM33.8189 19L33.4189 17.08H30.3389L29.9189 19H26.4789L29.7789 6.16H34.0389L37.3389 19H33.8189ZM30.8789 14.6H32.8789L31.8989 9.98L30.8789 14.6ZM48.6383 8.66H44.4383V11.78H48.0783V14.08H44.4383V19H40.9383V6.16H48.6383V8.66ZM60.2869 6.16V8.66H57.8069V19H54.3069V8.66H51.8469V6.16H60.2869ZM66.8597 6.16H69.8197C71.7797 6.16 72.7597 6.98667 72.7597 8.64V16.52C72.7597 18.1733 71.7797 19 69.8197 19H66.8597C64.8997 19 63.9197 18.1733 63.9197 16.52V8.64C63.9197 6.98667 64.8997 6.16 66.8597 6.16ZM69.2597 16.06V9.1C69.2597 8.80667 69.093 8.66 68.7597 8.66H67.9197C67.5864 8.66 67.4197 8.80667 67.4197 9.1V16.06C67.4197 16.3533 67.5864 16.5 67.9197 16.5H68.7597C69.093 16.5 69.2597 16.3533 69.2597 16.06ZM82.9522 6.16H86.1522V19H83.1522L80.2922 12.26V19H77.0922V6.16H80.0922L82.9522 13.02V6.16Z" fill="white"/>
<rect x="97" y="11" width="68" height="2" fill="white"/>
</svg>
